<svg xmlns:xlink="http://www.w3.org/1999/xlink" xmlns="http://www.w3.org/2000/svg" width="422" viewBox="0 0 422 422" fill="none" class="features-card-svg" height="422" ><path d="M1 401L1 21C1 9.95431 9.95432 1 21 1L185.526 1C190.996 1 196.227 3.24027 200.001 7.19917L301.635 113.801C305.41 117.76 310.641 120 316.111 120H401C412.046 120 421 128.954 421 140L421 401C421 412.046 412.046 421 401 421L21 421C9.95431 421 1 412.046 1 401Z" fill="url(&quot;#paint0_linear_103_8372&quot;)" stroke="url(&quot;#paint1_linear_103_8372&quot;)" stroke-opacity="0.5" vector-effect="non-scaling-stroke"></path><defs><linearGradient id="paint0_linear_103_8372" x1="11" y1="8.00001" x2="414" y2="412" gradientUnits="userSpaceOnUse"><stop stop-color="#E7F9FF"></stop><stop offset="1" stop-color="#BFE0FE"></stop></linearGradient><linearGradient id="paint1_linear_103_8372" x1="1" y1="1" x2="430.561" y2="493.569" gradientUnits="userSpaceOnUse"><stop stop-color="#3800F4" stop-opacity="0.2"></stop><stop offset="1" stop-color="#3800F4"></stop></linearGradient><linearGradient id="paint1_linear_103_8372" x1="1" y1="1" x2="430.561" y2="493.569" gradientUnits="userSpaceOnUse"><stop stop-color="#3800F4" stop-opacity="0.2"></stop><stop offset="1" stop-color="#3800F4"></stop></linearGradient><linearGradient id="paint0_linear_103_8372" x1="11" y1="8.00001" x2="414" y2="412" gradientUnits="userSpaceOnUse"><stop stop-color="#E7F9FF"></stop><stop offset="1" stop-color="#BFE0FE"></stop></linearGradient></defs></svg>