<svg xmlns="http://www.w3.org/2000/svg" xmlns:xlink="http://www.w3.org/1999/xlink" version="1.1" id="Layer_1" x="0px" y="0px" viewBox="0 0 1325.5 343.3" style="enable-background:new 0 0 1325.5 343.3;" xml:space="preserve" width="100%" height="343.29998779296875">
<style type="text/css">
	.st0{fill:#FFFFFF;}
	.st1{fill:#F96800;}
</style>
<g id="COD_x5F_Wordmark_x5F_2023_x5F_RGB_x5F_POS_00000127739564707490758360000008696344650555322268_">
	<path class="st0 svg-elem-1" d="M608.6,42.2c-0.7-0.7-1.6-1-2.6-1h-38.8c-1,0-2,0.3-2.6,1c-2.4,2.5-4.3,5-7.5,9.1c-0.5,0.6-0.7,1.5-0.7,2.3   v64.2c0,0.8,0.2,1.7,0.7,2.3c3.2,4.1,5.1,6.6,7.5,9.1c0.7,0.7,1.6,1,2.6,1H606c1,0,2-0.3,2.6-1c2.4-2.5,4.3-5,7.5-9.1   c0.5-0.6,0.7-1.5,0.7-2.3V53.5c0-0.8-0.2-1.7-0.7-2.3C612.9,47.1,611,44.7,608.6,42.2z M593.6,110.9h-14.1V60.3h14.1V110.9z    M332.5,2.4L332.5,2.4c-1.5-1.6-3.6-2.3-5.9-2.3h-76.7c-2.2,0-4.4,0.7-5.9,2.3c-5.3,5.6-13.8,15.3-21,24.5   c-1.1,1.4-1.6,3.3-1.6,5.1v173.9h51.9v-60.6h29.8v60.6H355V32c0-1.8-0.5-3.7-1.6-5.1C346.3,17.7,337.8,8,332.5,2.4z M303.2,111   h-29.8V34.4h29.8V111z M187.1,2.4L187.1,2.4L187.1,2.4c-1.5-1.6-3.7-2.3-5.9-2.3h-76.6c-2.2,0-4.4,0.7-5.9,2.3   c-5.3,5.6-13.9,15.3-21,24.5c-1.1,1.4-1.6,3.3-1.6,5.1v141.9c0,1.8,0.5,3.7,1.6,5.1c7.1,9.2,15.7,18.9,21,24.5   c1.5,1.6,3.7,2.3,5.9,2.3h76.7c2.2,0,4.4-0.7,5.9-2.3c5.3-5.6,13.8-15.3,21-24.5c1.1-1.4,1.6-3.3,1.6-5.1v-57h-51.9v54.7h-29.8   V34.4h29.8v54.7h51.9v-57c0-1.8-0.5-3.7-1.6-5.1C200.9,17.7,192.4,8,187.1,2.4z M529.8,0.1H473v205.8h96.6v-38.8h-39.8V0.1z    M423.5,0.1h-56.9v205.8h96.6v-38.8h-39.8V0.1H423.5z M812.7,2.4L812.7,2.4C811.2,0.8,809,0,806.8,0H701.7v205.8h105.1   c2.2,0,4.4-0.7,5.9-2.3c5.3-5.6,13.8-15.3,21-24.5c1.1-1.4,1.6-3.3,1.6-5.1V32.1c0-1.8-0.5-3.7-1.6-5.1   C826.6,17.7,818,8.1,812.7,2.4z M783.4,171.6h-29.8V34.4h29.8V171.6z M1241.7,89.8V0.1h-48.5v76.5l-12.5,14.9h-5.2l-12.6-14.9V0.1   h-48.4v89.7c0,1.7,0.6,3.5,1.7,4.8l33.9,41.1v70.2h55.9v-70.2l34-41.1C1241.1,93.3,1241.7,91.6,1241.7,89.8z M992,42.2h30.1v163.7   h51.9V42.2h30.1V0.1H991.9L992,42.2L992,42.2z M626.7,130.2h23.2v-29.4h24.8V80.1h-24.8V61.8h28V41.1h-51.2V130.2z M929,171.6   h-29.8V0.1h-51.9V174c0,1.8,0.5,3.7,1.6,5.1c7.1,9.2,15.7,18.9,21,24.5c1.5,1.6,3.7,2.3,5.9,2.3h76.7c2.2,0,4.4-0.7,5.9-2.3   c5.3-5.6,13.8-15.3,21-24.5c1.1-1.4,1.6-3.3,1.6-5.1V0.1h-51.9L929,171.6L929,171.6z"></path>
</g>
<g id="_xAE__00000182486912874292929740000010025269123877470086_">
	<path class="st0 svg-elem-2" d="M1252.2,186.4c-0.3-0.3-0.6-0.5-1-0.6v-0.6h1.3c1.1,0,1.9-0.3,2.5-0.9c0.6-0.6,0.9-1.4,0.9-2.4V178   c0-1.2-0.3-2.1-1-2.7c-0.7-0.6-1.6-1-2.8-1h-15.2v20h3.7v-8h7.6l3.7,8h4.5l-3.1-6.5C1252.8,187.2,1252.5,186.7,1252.2,186.4z    M1240.4,183.4v-6.1h11.1c0.2,0,0.3,0,0.4,0.1s0.1,0.2,0.1,0.4v5c0,0.2,0,0.3-0.1,0.4c-0.1,0.1-0.2,0.1-0.4,0.1h-11.1V183.4z    M1246,163.5c-11.7,0-21.3,9.5-21.3,21.2s9.5,21.2,21.3,21.2c11.7,0,21.3-9.5,21.3-21.2C1267.2,173,1257.7,163.5,1246,163.5z    M1246,202.6c-9.9,0-18-8-18-18c0-9.9,8.1-18,18-18s18,8,18,18S1255.9,202.6,1246,202.6z"></path>
</g>
<g id="Ops_00000091705816322131743300000006441129354701599649_">
	<path class="st0 svg-elem-3" d="M124,289.7h-1.1v-3.5h0.3c4.8,0,8.5-1.7,10.9-5.2c2.4-3.4,3.6-8.9,3.6-16.2v-9.2c0-6.4-1.6-11.5-4.8-15.2   c-3.2-3.7-7.6-5.6-13.3-5.6H0v107.8h120.4c5.7,0,10.3-1.9,13.6-5.8c3.4-3.9,5.1-9.4,5.1-16.6v-9.9C139,296.5,134,289.7,124,289.7z    M37.6,260.9h60.7c1.1,0,1.6,0.8,1.6,2.3v10.5c0,1.5-0.5,2.3-1.6,2.3H37.6V260.9z M101.3,314.1c0,1.5-0.5,2.3-1.6,2.3H37.6v-16.5   h62c1.1,0,1.6,0.8,1.6,2.3L101.3,314.1L101.3,314.1z M182.3,234.7h-37.7v107.8h109.7v-36.7h-72L182.3,234.7L182.3,234.7z    M303.8,234.7L256,342.5h40.8l8.2-20.6h55.3l8.2,20.6h43.4l-48.5-107.8L303.8,234.7L303.8,234.7z M316.2,293.8l13-32.6h7l12.9,32.6   H316.2z M533.3,234.2H428.7c-5.4,0-9.5,2.1-12.5,6.2s-4.4,10-4.4,17.7v61.2c0,7.6,1.5,13.4,4.4,17.6c3,4.2,7.1,6.3,12.5,6.3h104.6   c5.4,0,9.6-2.1,12.6-6.3c2.9-4.2,4.4-10,4.4-17.6V298h-37.7v10.2c0,0.7-0.2,1.2-0.5,1.6c-0.3,0.4-0.7,0.6-1.2,0.6H451   c-0.5,0-0.9-0.2-1.2-0.6c-0.3-0.4-0.5-0.9-0.5-1.6v-39.1c0-0.7,0.2-1.2,0.5-1.6c0.3-0.4,0.7-0.6,1.2-0.6h59.9   c0.5,0,0.9,0.2,1.2,0.6c0.3,0.4,0.5,0.9,0.5,1.6v10.1h37.7v-21.1c0-7.7-1.5-13.6-4.4-17.7C542.9,236.2,538.7,234.2,533.3,234.2z    M689.1,234.7h-50.5l-36.7,34.8h-7.2v-34.8H557v107.8h37.7v-36.4h7.3l35.8,36.4h51.9l-55.8-54.2L689.1,234.7z M848.6,233.7H741.4   c-5.4,0-9.5,2.1-12.5,6.2s-4.4,10-4.4,17.7v61.2c0,7.6,1.5,13.4,4.4,17.6c3,4.2,7.1,6.3,12.5,6.3h107.2c5.4,0,9.6-2.1,12.5-6.3   c2.9-4.2,4.4-10,4.4-17.6v-61.2c0-7.7-1.5-13.6-4.4-17.7C858.2,235.8,854,233.7,848.6,233.7z M827.8,307.7c0,0.7-0.2,1.2-0.5,1.6   c-0.3,0.4-0.7,0.6-1.2,0.6h-62.4c-0.5,0-0.9-0.2-1.2-0.6c-0.3-0.4-0.5-0.9-0.5-1.6v-39.1c0-0.7,0.2-1.2,0.5-1.6   c0.3-0.4,0.7-0.6,1.2-0.6h62.4c0.5,0,0.9,0.2,1.2,0.6c0.3,0.4,0.5,0.9,0.5,1.6V307.7z M991.1,234.3H872.6v107.8h37.6v-27.7h80.9   c5.4,0,9.5-2.1,12.4-6.2c2.9-4.1,4.4-10,4.4-17.5v-32.6c0-7.6-1.5-13.4-4.4-17.5C1000.6,236.4,996.5,234.3,991.1,234.3z M970.2,282   c0,0.7-0.2,1.2-0.5,1.6c-0.3,0.4-0.7,0.6-1.2,0.6h-58.4v-19.8h58.4c1.1,0,1.6,0.8,1.6,2.3L970.2,282L970.2,282z M1144.3,283   c-2.4-3.8-6.2-5.9-11.3-6.3l-85.8-6.5c-1.2,0-1.8-0.9-1.8-2.6v-2.2c0-0.7,0.1-1.2,0.4-1.5s0.6-0.5,1-0.5h68.6   c0.5,0,0.9,0.1,1.1,0.4s0.3,0.8,0.3,1.4v5l30.2-5.8l0.1-9.4c0-6.8-1.3-12.1-3.8-15.8c-2.6-3.7-6.2-5.6-10.9-5.6h-102.6   c-4.8,0-8.6,1.9-11.2,5.6c-2.7,3.7-4,9-4,15.8v22.4c0,13.6,5,20.8,15,21.6l85.8,6.3c0.7,0.1,1.2,0.3,1.4,0.7c0.3,0.4,0.4,1,0.4,1.7   v3c0,1.3-0.5,2-1.4,2h-70.5c-0.9,0-1.3-0.6-1.3-1.9v-6.4h-30.4V321c0,6.8,1.3,12.1,3.9,15.8s6.2,5.6,10.9,5.6h104.4   c4.9,0,8.7-1.9,11.3-5.6c2.6-3.7,3.9-9,3.9-15.8v-22.7C1147.9,292,1146.7,286.9,1144.3,283z"></path>
</g>
<g id="_x36__00000163052776974824065740000004711401103408683407_">
	<path class="st1 svg-elem-4" d="M1321.3,279.3c-2.8-3.5-7.3-5.3-13.4-5.3h-72.8c-5.1,0-7.3,2.4-10,5.2c-1.5,1.5-7.4,8.1-7.4,8.1s0-15.7,0-18.5   c0-0.7,0.1-1.9,1-2.8c1.7-1.8,3.8-4.1,5.2-5.7c0.8-0.9,1.3-1.2,2.2-1.2c1.9,0,52.4,0,71.4,0c4.1,0,5.3-0.7,9.6-5.4   c6.5-7.1,17.6-19.8,17.6-19.8h-110.3c-5.6,0-6.8,0.9-10.8,5.3c-2,2.2-7.1,7.4-12.8,13.9c-4.7,5.3-4.3,7.2-4.3,10.7v55.5   c0,7.6,1.5,13.5,4.6,17.7s7.4,6.3,13,6.3h103.7c5.7,0,10-2.1,13.1-6.3c3-4.2,4.6-10.1,4.6-17.7v-23.2   C1325.5,288.4,1324.1,282.8,1321.3,279.3z M1292.9,315.7c0,0.7-0.1,1.2-0.4,1.6c-0.3,0.4-0.7,0.6-1.2,0.6h-72   c-0.5,0-0.9-0.2-1.2-0.6c-0.3-0.4-0.4-0.9-0.4-1.6c0,0,0-0.7,0.1-2.4c0-1.8-0.2-2.4,0.7-3.4c1.3-1.5,4.3-4.7,6.2-6.6   c2.2-2.2,3.1-3,4.5-3l62.5-0.1c0.9,0,1.3,0.6,1.3,1.7L1292.9,315.7L1292.9,315.7z"></path>
</g>
</svg>