<svg xmlns:xlink="http://www.w3.org/1999/xlink" xmlns="http://www.w3.org/2000/svg" viewBox="0 0 1200 571.7" width="1200"
    height="571.7">
    <path fill="#fff"
        d="M1140 30.8c28.3 0 42.4 0 51.2 8.8 8.8 8.8 8.8 23 8.8 51.3v338.6c0 28.4 0 42.5-8.8 51.3-8.8 8.8-22.9 8.8-51.2 8.8h-66.4c-10.1 0-15.1 0-19.2 1.2-9.8 2.9-17.5 10.6-20.4 20.4-1.2 4.1-1.2 9.2-1.2 19.3s0 15.2-1.2 19.3c-2.9 9.9-10.6 17.6-20.4 20.4-4.1 1.2-9.2 1.2-19.3 1.2H60c-28.3 0-42.4 0-51.2-8.8C0 554 0 539.9 0 511.5V60.2C0 31.8 0 17.6 8.8 8.8 17.6 0 31.7 0 60 0h417.1c10.7 0 16.1 0 21 1.8.5.2 1 .4 1.6.6 4.8 2 8.8 5.7 16.6 13 7.9 7.3 11.8 11 16.6 13 .5.2 1 .4 1.6.6 4.9 1.8 10.3 1.8 21 1.8H1140z" />
</svg>