<svg xmlns:xlink="http://www.w3.org/1999/xlink" xmlns="http://www.w3.org/2000/svg" width="871" height="212" fill="none"><path d="m147.893 4.3934 10.714 10.7132A14.9991 14.9991 0 0 0 169.213 19.5h505.074c3.978 0 7.793-1.5804 10.606-4.3934l10.714-10.7132A14.999 14.999 0 0 1 706.213 0h108.574a14.999 14.999 0 0 1 10.606 4.3934l41.214 41.2132A14.9998 14.9998 0 0 1 871 56.2132v99.0738c0 3.978-1.58 7.793-4.393 10.606l-41.214 41.214a14.9988 14.9988 0 0 1-10.606 4.393h-53.074c-3.978 0-7.793-1.58-10.606-4.393l-9.714-9.714A14.9988 14.9988 0 0 0 730.787 193H607.713c-3.978 0-7.793 1.58-10.606 4.393l-9.714 9.714a14.9988 14.9988 0 0 1-10.606 4.393H345.713c-3.978 0-7.793-1.58-10.606-4.393l-9.714-9.714A14.9988 14.9988 0 0 0 314.787 193H149.713c-3.978 0-7.793 1.58-10.606 4.393l-9.714 9.714a14.9988 14.9988 0 0 1-10.606 4.393H56.2132c-3.9782 0-7.7936-1.58-10.6066-4.393L4.3934 165.893A14.999 14.999 0 0 1 0 155.287V56.2132a15 15 0 0 1 4.3934-10.6066L45.6066 4.3934A15 15 0 0 1 56.2132 0h81.0738a14.999 14.999 0 0 1 10.606 4.3934Z" fill="#363636"/></svg>